<?xml version="1.0" standalone="no"?>
<!DOCTYPE svg PUBLIC "-//W3C//DTD SVG 20010904//EN"
 "http://www.w3.org/TR/2001/REC-SVG-20010904/DTD/svg10.dtd">
<svg version="1.0" xmlns="http://www.w3.org/2000/svg"
 width="187.000000pt" height="187.000000pt" viewBox="0 0 187.000000 187.000000"
 preserveAspectRatio="xMidYMid meet">
<metadata>
Created by potrace 1.11, written by Peter Selinger 2001-2013
</metadata>
<g transform="translate(0.000000,187.000000) scale(0.100000,-0.100000)"
fill="#000000" stroke="none">
<path d="M890 1849 c-3 -100 -32 -163 -148 -323 -66 -91 -107 -190 -115 -276
-13 -140 99 -300 238 -339 64 -18 66 -14 30 46 -66 110 -70 226 -10 348 19 39
41 79 49 90 9 11 36 47 60 81 l44 61 -18 39 c-10 21 -42 93 -70 159 -56 129
-60 136 -60 114z"/>
<path d="M1145 1713 c-11 -61 -67 -173 -117 -234 -167 -205 -201 -347 -120
-505 11 -22 30 -48 42 -59 l23 -20 -7 22 c-14 44 -8 129 14 185 35 95 101 165
264 280 18 13 17 20 -29 183 -26 94 -51 174 -55 178 -4 5 -11 -9 -15 -30z"/>
<path d="M1363 1598 c2 -45 -14 -111 -38 -157 -25 -51 -55 -79 -154 -150 -119
-86 -183 -187 -187 -299 -4 -88 -3 -90 63 -86 156 11 263 80 327 214 37 79 39
143 11 400 -2 14 -3 42 -4 63 -1 20 -5 37 -10 37 -4 0 -8 -10 -8 -22z"/>
<path d="M548 1593 c-2 -4 -5 -24 -7 -43 -1 -19 -21 -89 -43 -155 -37 -105
-42 -131 -42 -210 0 -74 4 -98 23 -138 32 -66 93 -123 157 -146 62 -24 99 -27
173 -16 l54 7 -61 29 c-125 60 -194 179 -188 326 2 43 11 98 20 122 9 24 16
51 16 60 0 20 -97 175 -102 164z"/>
<path d="M1099 876 c-4 -4 -66 -10 -209 -22 -89 -7 -121 -11 -127 -18 -3 -3
-2 -26 2 -51 l7 -47 76 6 c231 18 255 21 271 30 5 3 7 25 4 49 -5 40 -15 62
-24 53z"/>
<path d="M1019 716 c-2 -3 -34 -6 -72 -9 -37 -2 -70 -6 -73 -9 -6 -7 134 -666
147 -688 5 -9 9 49 9 145 1 88 3 249 5 357 4 171 0 220 -16 204z"/>
</g>
</svg>
