<svg xmlns="http://www.w3.org/2000/svg" width="23" height="35" viewBox="0 0 23 35">
    <g fill="none" fill-rule="evenodd">
        <path fill="#7045AF" d="M5.883 28.515V6.234a.54.54 0 0 1 .331-.51l9.575-3.669A.693.693 0 0 0 15.521 2H.85C.38 2 0 2.476 0 3.064v28.872C0 32.524.38 33 .85 33h14.67a.734.734 0 0 0 .48-.185l-9.787-3.79a.54.54 0 0 1-.33-.51"/>
        <path fill="#FF5A59" d="M21.761.066L19 1.257c.318.15.547.57.547 1.068v30.561c0 .387-.139.727-.35.93l2.561 1.117c.606.264 1.242-.288 1.242-1.078V1.145c0-.788-.634-1.34-1.239-1.08"/>
    </g>
</svg>
