<?xml version="1.0" encoding="UTF-8"?>
<svg width="18px" height="18px" viewBox="0 0 18 18" version="1.1" xmlns="http://www.w3.org/2000/svg" xmlns:xlink="http://www.w3.org/1999/xlink">
    <!-- Generator: Sketch 52.6 (67491) - http://www.bohemiancoding.com/sketch -->
    <title>noun_Time_1953631</title>
    <desc>Created with Sketch.</desc>
    <g id="Symbols" stroke="none" stroke-width="1" fill="none" fill-rule="evenodd">
        <g id="card1" transform="translate(-402.000000, -65.000000)" fill="#182952" fill-rule="nonzero">
            <g id="noun_Time_1953631" transform="translate(402.000000, 65.000000)">
                <g id="Group">
                    <path d="M17.6887266,6.67089844 C17.0668828,4.34893359 15.5776992,2.40876563 13.4963437,1.20684375 C12.1279922,0.418042969 10.5755977,0 9.00566016,0 C5.7965625,0 2.80719141,1.72483594 1.20427734,4.5 C-1.27589062,8.79728906 0.201234375,14.3113359 4.49743359,16.7925938 C5.86578516,17.5825195 7.41870703,18 8.98864453,18 C12.1972148,18 15.1865859,16.2751641 16.7900273,13.4989102 C17.9919492,11.4169922 18.3105352,8.99230078 17.6887266,6.67089844 Z M17.2937461,10.0332773 C17.1558633,11.1423516 16.7999062,12.2014336 16.2352266,13.1786719 C15.8551172,13.8372891 15.3909141,14.4371602 14.8559062,14.9634141 C14.3351719,15.4753594 13.7495742,15.9159375 13.1156719,16.2740742 C11.8582734,16.9843359 10.4311758,17.3595234 8.98864453,17.3595234 C8.27068359,17.3595234 7.55711719,17.2666758 6.86552344,17.0837578 C6.15417187,16.8958828 5.46475781,16.6113281 4.81823437,16.2378281 C3.84099609,15.6742383 3.00329297,14.935957 2.32927734,14.0433047 C1.67723437,13.1803242 1.20427734,12.2113477 0.924117187,11.1626719 C0.642304687,10.1140313 0.567597656,9.03737109 0.700558594,7.96619531 C0.837878906,6.85712109 1.19383594,5.79912891 1.75855078,4.82080078 C2.13866016,4.16271094 2.60286328,3.56178516 3.13843359,3.03605859 C3.65698828,2.52573047 4.24255078,2.08409766 4.87866797,1.72539844 C6.7584375,0.663574219 9.04359375,0.364746094 11.1282539,0.915152344 C11.8429102,1.10411719 12.5323242,1.38867188 13.1761055,1.76108203 C14.1544336,2.32576172 14.9916094,3.06460547 15.6650625,3.95616797 C16.3171055,4.81967578 16.7895,5.788125 17.0702227,6.83623828 C17.3514375,7.88487891 17.4266719,8.96044922 17.2937461,10.0332773 Z" id="Shape"></path>
                    <path d="M14.3969877,12.2493974 L8.7145734,8.96852812 L8.7145734,2.40557469 C8.7145734,2.20962937 8.55413337,2.04918934 8.35697319,2.04918934 C8.16040084,2.04918934 8,2.20962937 8,2.40557469 L8.00121486,9.14730863 C7.99141759,9.28568521 8.05937143,9.41489156 8.17878051,9.48347242 L14.0399754,12.867213 C14.2059019,12.9627559 14.4330809,12.9008764 14.5274089,12.7367918 C14.5751804,12.6541421 14.5874074,12.5580113 14.5629142,12.4661521 C14.5384603,12.3737051 14.4796767,12.2971689 14.3969877,12.2493974 Z" id="Shape"></path>
                </g>
            </g>
        </g>
    </g>
</svg>