<?xml version="1.0" encoding="UTF-8"?>
<svg width="14px" height="19px" viewBox="0 0 14 19" version="1.1" xmlns="http://www.w3.org/2000/svg" xmlns:xlink="http://www.w3.org/1999/xlink">
    <!-- Generator: Sketch 52.6 (67491) - http://www.bohemiancoding.com/sketch -->
    <title>Group 3</title>
    <desc>Created with Sketch.</desc>
    <defs>
        <polygon id="path-1" points="0 0 14 0 14 19 0 19"></polygon>
    </defs>
    <g id="Symbols" stroke="none" stroke-width="1" fill="none" fill-rule="evenodd">
        <g id="card1" transform="translate(-405.000000, -104.000000)">
            <g id="Group-3" transform="translate(405.000000, 104.000000)">
                <mask id="mask-2" fill="white">
                    <use xlink:href="#path-1"></use>
                </mask>
                <g id="Clip-2"></g>
                <path d="M14,2.19311876 L14,2.78357381 C14,2.88901221 13.910624,2.97336293 13.798624,2.97336293 L0.2016,2.97336293 C0.0896,2.97336293 0,2.88901221 0,2.78357381 L0,2.19311876 C0,1.64483907 0.4704,1.20199778 1.0528,1.20199778 L1.1648,1.20199778 L1.1648,0.991120977 C1.1648,0.442841287 1.6352,0 2.2176,0 L11.76,0 C12.342624,0 12.8128,0.442841287 12.8128,0.991120977 L12.8128,1.1809101 L12.9248,1.1809101 C13.5072,1.20199778 14,1.64483907 14,2.19311876 M6.9888,13.9600444 C4.928,13.9600444 3.2704,12.399556 3.2704,10.4594895 C3.2704,8.51942286 4.928,6.95893452 6.9888,6.95893452 C9.0496,6.95893452 10.7072,8.51942286 10.7072,10.4594895 C10.7072,12.399556 9.0496,13.9600444 6.9888,13.9600444 M13.104,3.39511654 L0.8736,3.39511654 C0.7392,3.39511654 0.6496,3.50055494 0.672,3.62708102 L2.5984,17.7769145 C2.688,18.472808 3.3376,19 4.0768,19 L9.968,19 C10.7072,19 11.334624,18.472808 11.446624,17.7769145 L13.3728,3.62708102 C13.350624,3.50055494 13.238624,3.39511654 13.104,3.39511654" id="Fill-1" fill="#182952" mask="url(#mask-2)"></path>
            </g>
        </g>
    </g>
</svg>