<?xml version="1.0" encoding="UTF-8"?>
<svg width="17px" height="22px" viewBox="0 0 17 22" version="1.1" xmlns="http://www.w3.org/2000/svg" xmlns:xlink="http://www.w3.org/1999/xlink">
    <!-- Generator: Sketch 52.6 (67491) - http://www.bohemiancoding.com/sketch -->
    <title>noun_Location_557127</title>
    <desc>Created with Sketch.</desc>
    <g id="Symbols" stroke="none" stroke-width="1" fill="none" fill-rule="evenodd">
        <g id="card1" transform="translate(-213.000000, -63.000000)" fill-rule="nonzero">
            <g id="noun_Location_557127" transform="translate(213.000000, 63.000000)">
                <g id="noun_Location_1155426">
                    <path d="M15.4377586,3.75128205 C13.0962272,0.230949359 8.31624109,-0.934531401 4.51520537,1.08808903 C0.714169654,3.11070946 -0.801311152,7.62615612 1.05224138,11.4061538 C1.21535782,11.7298594 1.40244935,12.0418603 1.61206897,12.3397436 L8.10137931,21.6982051 C8.19004039,21.8258023 8.33902662,21.9024042 8.49853448,21.9024042 C8.65804235,21.9024042 8.80702858,21.8258023 8.89568966,21.6982051 L15.3439655,12.3905128 C15.5863217,12.0497044 15.800927,11.6913712 15.9858621,11.3187179 C17.1626183,8.8724846 16.9557816,6.01677666 15.4377586,3.75128205 Z M15.1856897,10.9746154 C15.016343,11.3083755 14.8203531,11.6289949 14.5994828,11.9335897 L8.5,20.7476923 L2.34482759,11.8687179 C2.158241,11.6051724 1.9917143,11.3289813 1.84655172,11.0423077 C0.393725668,8.07631864 1.24754958,4.53844314 3.91003093,2.49214596 C6.57251229,0.44584878 10.34681,0.426699507 13.031566,2.44586695 C15.7163221,4.46503439 16.6088655,7.99404952 15.1886207,10.9746154 L15.1856897,10.9746154 Z" id="Shape" fill="#314065" style="mix-blend-mode: darken;"></path>
                    <path d="M8.51856322,5.32512821 C6.96400861,5.32512821 5.7037931,6.52982662 5.7037931,8.01589744 C5.7037931,9.50196825 6.96400861,10.7066667 8.51856322,10.7066667 C10.0731178,10.7066667 11.3333333,9.50196825 11.3333333,8.01589744 C11.3317071,6.53047104 10.0724437,5.32668281 8.51856322,5.32512821 Z M8.51856322,9.85769231 C7.45286226,9.85769231 6.58894094,9.03182987 6.58894094,8.01307692 C6.58894094,6.99432398 7.45286226,6.16846154 8.51856322,6.16846154 C9.58426418,6.16846154 10.4481855,6.99432398 10.4481855,8.01307692 C10.4481855,8.50229934 10.2448866,8.97148448 9.88301222,9.31741697 C9.52113784,9.66334946 9.03033087,9.85769231 8.51856322,9.85769231 Z" id="Shape" fill="#324165"></path>
                </g>
            </g>
        </g>
    </g>
</svg>