<?xml version="1.0" encoding="UTF-8"?>
<svg width="29px" height="15px" viewBox="0 0 29 15" version="1.1" xmlns="http://www.w3.org/2000/svg" xmlns:xlink="http://www.w3.org/1999/xlink">
    <!-- Generator: Sketch 52.6 (67491) - http://www.bohemiancoding.com/sketch -->
    <title>noun_people_196619</title>
    <desc>Created with Sketch.</desc>
    <g id="Symbols" stroke="none" stroke-width="1" fill="none" fill-rule="evenodd">
        <g id="card1" transform="translate(-207.000000, -105.000000)" fill="#182952" fill-rule="nonzero">
            <g id="noun_people_196619" transform="translate(207.000000, 105.000000)">
                <path d="M20.8238451,12.6585713 C21.8982849,12.9253164 21.9596814,14.1997649 21.8982849,14.9407233 L22.911328,15 C23.0341211,13.2216997 22.358759,12.0361662 21.0694314,11.7101445 C17.7540174,10.9099094 16.9558622,9.90220593 16.7716725,9.4872692 C17.0172587,9.33907752 17.2321467,9.13160915 17.4163364,8.92414079 C18.9819485,7.23475555 18.705664,4.33019846 18.6749657,4.06345342 C18.5214743,0.743959611 16.0042156,-0.0562755049 14.5306983,0.00300117034 C13.057181,-0.0562755049 10.5399222,0.743959611 10.3864308,4.06345342 C10.3557325,4.33019846 10.1101463,7.23475555 11.6450602,8.92414079 C11.8599481,9.16124749 12.1362326,9.36871585 12.4125171,9.54654588 C12.1669309,9.96148261 11.2766809,10.9395477 8.14545658,11.7101445 C6.82543065,12.0361662 6.18076682,13.2216997 6.30355993,15 L7.31660309,14.9407233 C7.25520653,14.1997649 7.34730136,12.9253164 8.3910428,12.6882097 C11.8292499,11.8583362 12.9650861,10.702441 13.3334655,9.96148261 C13.6711465,10.0503976 14.0702241,10.1096743 14.4693017,10.1096743 C14.4693017,10.1096743 14.5,10.1096743 14.5,10.1096743 L14.5306983,10.1096743 C14.5306983,10.1096743 14.5613966,10.1096743 14.5613966,10.1096743 C14.5613966,10.1096743 14.5920948,10.1096743 14.5920948,10.1096743 C15.052569,10.1096743 15.4516466,10.0503976 15.8507242,9.93184427 C16.2191035,10.6431644 17.3242415,11.8286979 20.8238451,12.6585713 Z M14.5613966,9.13160915 C14.5613966,9.13160915 14.5613966,9.13160915 14.5613966,9.13160915 C14.5306983,9.13160915 14.5306983,9.13160915 14.5613966,9.13160915 C14.5306983,9.13160915 14.5306983,9.13160915 14.5306983,9.13160915 C13.6404482,9.13160915 12.9343879,8.83522578 12.4125171,8.27209736 C11.1231895,6.8790955 11.399474,4.18200677 11.399474,4.15236844 C11.399474,4.15236844 11.399474,4.1227301 11.399474,4.1227301 C11.5529654,1.21817301 13.7632413,0.981066311 14.4079052,0.981066311 C14.4386034,0.981066311 14.4693017,0.981066311 14.5,0.981066311 C14.5,0.981066311 14.5306983,0.981066311 14.5306983,0.981066311 C15.0218707,0.951427974 17.5084312,1.01070465 17.6619226,4.1227301 C17.6619226,4.1227301 17.6619226,4.15236844 17.6619226,4.15236844 C17.6619226,4.18200677 17.9382071,6.84945716 16.6488794,8.27209736 C16.157707,8.83522578 15.4516466,9.10197082 14.5613966,9.13160915 Z M24.9681126,9.90220593 C26.1346471,8.62775741 25.9504575,6.49379711 25.9197592,6.28632874 C25.7969661,3.79670838 23.8936729,3.17430329 22.7578366,3.20394163 C21.6220004,3.17430329 19.7187072,3.76707005 19.595914,6.28632874 C19.5652158,6.52343544 19.3810261,8.65739575 20.5475606,9.90220593 C21.0694314,10.4949727 21.80619,10.7913561 22.6964401,10.7913561 C22.6964401,10.7913561 22.7271383,10.7913561 22.7271383,10.7913561 L22.7578366,10.7913561 C22.7578366,10.7913561 22.7885349,10.7913561 22.7885349,10.7913561 C22.7885349,10.7913561 22.8192332,10.7913561 22.8192332,10.7913561 C23.126216,10.7913561 23.4025004,10.7320794 23.6480867,10.6728027 C23.9857677,11.2359311 24.8760178,12.0658046 27.3011817,12.628933 C27.9765438,12.806763 28.0072421,13.6366365 27.9765438,14.1404882 L28.9895869,14.1997649 C29.0816818,12.8364014 28.5598111,11.9176129 27.5467679,11.6508679 C25.3978885,11.1470161 24.7532247,10.4949727 24.569035,10.1985893 C24.6918281,10.1393126 24.8453195,10.0207593 24.9681126,9.90220593 Z M22.7578366,9.81329092 C22.7578366,9.81329092 22.7578366,9.81329092 22.7578366,9.81329092 C22.7578366,9.81329092 22.7271383,9.81329092 22.7578366,9.81329092 C22.1131728,9.81329092 21.6526986,9.63546089 21.3150176,9.2501625 C20.4247675,8.27209736 20.6089572,6.37524376 20.6089572,6.37524376 C20.6089572,6.37524376 20.6089572,6.34560542 20.6089572,6.34560542 C20.701052,4.33019846 22.2052676,4.18200677 22.6657418,4.18200677 C22.6964401,4.18200677 22.7271383,4.18200677 22.7271383,4.18200677 C22.7271383,4.18200677 22.7578366,4.18200677 22.7578366,4.18200677 C23.0955177,4.18200677 24.7839229,4.21164511 24.8760178,6.34560542 C24.8760178,6.34560542 24.8760178,6.37524376 24.8760178,6.37524376 C24.8760178,6.40488209 25.0602074,8.27209736 24.1699574,9.2501625 C23.8322763,9.63546089 23.3718022,9.81329092 22.7578366,9.81329092 Z M1.4532321,11.6805062 C0.440188947,11.9176129 -0.0816817686,12.8660397 0.0104130637,14.1997649 L1.02345622,14.1404882 C0.992757941,13.6366365 1.02345622,12.806763 1.69881832,12.628933 C4.15468051,12.0361662 5.04493056,11.2359311 5.35191333,10.6728027 C5.59749955,10.7320794 5.87378405,10.7913561 6.18076682,10.7913561 C6.18076682,10.7913561 6.2114651,10.7913561 6.2114651,10.7913561 C6.2114651,10.7913561 6.24216338,10.7913561 6.24216338,10.7913561 C6.24216338,10.7913561 6.27286165,10.7913561 6.27286165,10.7913561 C7.1631117,10.7617177 7.89987036,10.4653343 8.42174107,9.90220593 C9.58827561,8.62775741 9.40408595,6.49379711 9.37338767,6.28632874 C9.25059456,3.76707005 7.34730136,3.17430329 6.2114651,3.20394163 C5.07562884,3.17430329 3.17233564,3.76707005 3.04954253,6.28632874 C3.01884425,6.52343544 2.83465459,8.65739575 4.00118913,9.90220593 C4.12398224,10.0503976 4.24677535,10.168951 4.40026673,10.257866 C4.24677535,10.524611 3.60211152,11.1766544 1.4532321,11.6805062 Z M4.09328396,6.34560542 C4.09328396,6.34560542 4.09328396,6.31596708 4.09328396,6.31596708 C4.18537879,4.30056012 5.68959438,4.15236844 6.15006855,4.15236844 C6.18076682,4.15236844 6.2114651,4.15236844 6.2114651,4.15236844 C6.2114651,4.15236844 6.24216338,4.15236844 6.24216338,4.15236844 C6.57984443,4.15236844 8.26824969,4.18200677 8.36034452,6.31596708 C8.36034452,6.31596708 8.36034452,6.34560542 8.36034452,6.34560542 C8.36034452,6.37524376 8.54453418,8.24245903 7.65428414,9.22052417 C7.31660309,9.60582256 6.82543065,9.78365258 6.2114651,9.78365258 C6.2114651,9.78365258 6.2114651,9.78365258 6.2114651,9.78365258 C6.2114651,9.78365258 6.2114651,9.78365258 6.2114651,9.78365258 C5.59749955,9.78365258 5.13702539,9.60582256 4.76864606,9.22052417 C3.90909429,8.24245903 4.09328396,6.34560542 4.09328396,6.34560542 Z" id="Shape"></path>
            </g>
        </g>
    </g>
</svg>