<?xml version="1.0" encoding="UTF-8"?>
<svg width="20px" height="18px" viewBox="0 0 20 18" version="1.1" xmlns="http://www.w3.org/2000/svg" xmlns:xlink="http://www.w3.org/1999/xlink">
    <!-- Generator: Sketch 52.6 (67491) - http://www.bohemiancoding.com/sketch -->
    <title>Fill 1</title>
    <desc>Created with Sketch.</desc>
    <g id="Symbols" stroke="none" stroke-width="1" fill="none" fill-rule="evenodd">
        <g id="card1" transform="translate(-444.000000, -105.000000)" fill="#182952">
            <path d="M450.315789,120.882353 L458.736842,120.882353 L458.736842,115.588235 L450.315789,115.588235 L450.315789,120.882353 Z M460.840105,112.411765 C461.421541,112.411765 461.894737,112.886841 461.894737,113.470588 C461.894737,114.054335 461.421541,114.529412 460.840105,114.529412 C460.258434,114.529412 459.789474,114.054335 459.789474,113.470588 C459.789474,112.886841 460.258434,112.411765 460.840105,112.411765 Z M446.836,110.294118 C445.267111,110.294118 444.004,111.520913 444.004,113.044695 L444,119.115003 L448.004,119.115003 L448.004,123 L460.004,123 L460.004,119.115003 L464,119.115003 L464,113.044695 C464,111.520913 462.736667,110.294118 461.168,110.294118 L446.836,110.294118 Z M448.210526,109.235294 L459.789474,109.235294 L459.789474,105 L448.210526,105 L448.210526,109.235294 Z" id="Fill-1"></path>
        </g>
    </g>
</svg>