<?xml version="1.0" encoding="UTF-8"?>
<svg width="25px" height="13px" viewBox="0 0 25 13" version="1.1" xmlns="http://www.w3.org/2000/svg" xmlns:xlink="http://www.w3.org/1999/xlink">
    <!-- Generator: Sketch 52.6 (67491) - http://www.bohemiancoding.com/sketch -->
    <title>noun_Projector_1022907</title>
    <desc>Created with Sketch.</desc>
    <g id="Symbols" stroke="none" stroke-width="1" fill="none" fill-rule="evenodd">
        <g id="card1" transform="translate(-483.000000, -108.000000)" fill="#182952" fill-rule="nonzero">
            <g id="noun_Projector_1022907" transform="translate(483.000000, 108.000000)">
                <g id="Group">
                    <ellipse id="Oval" cx="19.7916667" cy="5.41666667" rx="2.08333333" ry="2.16666667"></ellipse>
                    <path d="M2.34375,0 C1.04921875,0 0,1.0911875 0,2.4375 L0,8.125 C0,9.4713125 1.04921875,10.5625 2.34375,10.5625 L2.34375,12.1875 C2.34375,12.6368125 2.69375,13 3.125,13 L5.46875,13 C5.9,13 6.25,12.6368125 6.25,12.1875 L6.25,10.5625 L18.75,10.5625 L18.75,12.1875 C18.75,12.6368125 19.0992187,13 19.53125,13 L21.875,13 C22.3070313,13 22.65625,12.6368125 22.65625,12.1875 L22.65625,10.5625 C23.9507812,10.5625 25,9.4713125 25,8.125 L25,2.4375 C25,1.0911875 23.9507812,0 22.65625,0 L2.34375,0 Z M2.34375,3.25 C2.34375,2.8015 2.69375,2.4375 3.125,2.4375 C3.55625,2.4375 3.90625,2.8015 3.90625,3.25 L3.90625,7.3125 C3.90625,7.7618125 3.55625,8.125 3.125,8.125 C2.69375,8.125 2.34375,7.7618125 2.34375,7.3125 L2.34375,3.25 Z M6.25,7.3125 C6.25,7.7618125 5.9,8.125 5.46875,8.125 C5.0375,8.125 4.6875,7.7618125 4.6875,7.3125 L4.6875,3.25 C4.6875,2.8015 5.0375,2.4375 5.46875,2.4375 C5.9,2.4375 6.25,2.8015 6.25,3.25 L6.25,7.3125 Z M8.59375,7.3125 C8.59375,7.7618125 8.24375,8.125 7.8125,8.125 C7.38125,8.125 7.03125,7.7618125 7.03125,7.3125 L7.03125,3.25 C7.03125,2.8015 7.38125,2.4375 7.8125,2.4375 C8.24375,2.4375 8.59375,2.8015 8.59375,3.25 L8.59375,7.3125 Z M19.921875,8.9375 C17.9804688,8.9375 16.40625,7.3003125 16.40625,5.28125 C16.40625,3.2621875 17.9804688,1.625 19.921875,1.625 C21.8632813,1.625 23.4375,3.2621875 23.4375,5.28125 C23.4375,7.3003125 21.8632813,8.9375 19.921875,8.9375 Z" id="Shape"></path>
                </g>
            </g>
        </g>
    </g>
</svg>