<svg xmlns="http://www.w3.org/2000/svg" xmlns:xlink="http://www.w3.org/1999/xlink" width="14" height="19" viewBox="0 0 14 19">
    <defs>
        <path id="a" d="M0 0h14v19H0z"/>
    </defs>
    <g fill="none" fill-rule="evenodd">
        <mask id="b" fill="#fff">
            <use xlink:href="#a"/>
        </mask>
        <path fill="#182952" d="M14 2.193v.59c0 .106-.09.19-.201.19H.202C.09 2.973 0 2.89 0 2.783v-.59c0-.548.47-.991 1.053-.991h.112v-.21c0-.55.47-.992 1.053-.992h9.542c.583 0 1.053.443 1.053.991v.19h.112c.582.021 1.075.464 1.075 1.012M6.989 13.96c-2.061 0-3.719-1.56-3.719-3.5S4.928 6.958 6.99 6.958c2.06 0 3.718 1.56 3.718 3.5S9.05 13.96 6.99 13.96m6.115-10.565H.874c-.135 0-.224.106-.202.232l1.926 14.15c.09.696.74 1.223 1.479 1.223h5.891c.74 0 1.367-.527 1.479-1.223l1.926-14.15a.28.28 0 0 0-.269-.232" mask="url(#b)"/>
    </g>
</svg>
