<svg xmlns="http://www.w3.org/2000/svg" width="25" height="13" viewBox="0 0 25 13">
    <g fill="#182952" fill-rule="nonzero">
        <ellipse cx="19.792" cy="5.417" rx="2.083" ry="2.167"/>
        <path d="M2.344 0C1.049 0 0 1.091 0 2.438v5.687c0 1.346 1.05 2.438 2.344 2.438v1.624c0 .45.35.813.781.813h2.344c.431 0 .781-.363.781-.813v-1.624h12.5v1.624c0 .45.35.813.781.813h2.344c.432 0 .781-.363.781-.813v-1.624C23.951 10.563 25 9.47 25 8.124V2.437C25 1.091 23.95 0 22.656 0H2.344zm0 3.25c0-.449.35-.813.781-.813.431 0 .781.365.781.813v4.063c0 .449-.35.812-.781.812-.431 0-.781-.363-.781-.813V3.25zM6.25 7.313c0 .449-.35.812-.781.812-.432 0-.782-.363-.782-.813V3.25c0-.449.35-.813.782-.813.431 0 .781.365.781.813v4.063zm2.344 0c0 .449-.35.812-.781.812-.432 0-.782-.363-.782-.813V3.25c0-.449.35-.813.782-.813.43 0 .78.365.78.813v4.063zm11.328 1.625c-1.942 0-3.516-1.638-3.516-3.657s1.574-3.656 3.516-3.656c1.941 0 3.515 1.637 3.515 3.656 0 2.02-1.574 3.657-3.515 3.657z"/>
    </g>
</svg>
